# xmcd
#
# Track frame offsets:
#	150
#	16277
#	29091
#	81623
#	94511
#	112526
#	129090
#	144505
#	157042
#	172495
#	192434
#	209764
#
# Disc length: 3007 seconds
#
# Revision: 1
# Processed by: cddbd v1.5.1PL2 Copyright (c) Steve Scherf et al.
# Submitted via: audiograbber 1.82.01
#
DISCID=a90bbd0c
DTITLE=Gretchen Wilson - All Jacked Up
DYEAR=2005
DGENRE=Country
TTITLE0=All Jacked Up
TTITLE1=California Girls
TTITLE2=Full Time Job
TTITLE3=Skoal Ring
TTITLE4=He Ain't Even Cold Yet
TTITLE5=One Bud Wiser
TTITLE6=Politically Uncorrect featuring Merle Haggard
TTITLE7=I Don't Feel Like Loving You Today
TTITLE8=Rebel Child
TTITLE9=Raining On Me
TTITLE10=Not Bad For A Bartender
TTITLE11=Good Morning Heartache (Bonus Track)
EXTD=
EXTT0=
EXTT1=
EXTT2=
EXTT3=
EXTT4=
EXTT5=
EXTT6=
EXTT7=
EXTT8=
EXTT9=
EXTT10=
EXTT11=
PLAYORDER=
